Coordinates
version=1
nRows=14
nColumns=24
inDegrees=yes

Units are S.I. units (second, meters, Newtons, ...)
Angles are in degrees.

endheader
time	pelvis_tilt	pelvis_list	pelvis_rotation	pelvis_tx	pelvis_ty	pelvis_tz	hip_flexion_r	hip_adduction_r	hip_rotation_r	knee_angle_r	ankle_angle_r	subtalar_angle_r	mtp_angle_r	hip_flexion_l	hip_adduction_l	hip_rotation_l	knee_angle_l	ankle_angle_l	subtalar_angle_l	mtp_angle_l	lumbar_extension	lumbar_bending	lumbar_rotation
      0.44200000	      1.21719275	      5.03143678	     -0.45527941	     -0.86878225	      1.00094310	      0.30972199	     23.39061003	     -3.96027587	     -9.68575667	     -1.82050753	     -0.69270067	     -7.27654554	     -0.37053042	    -12.96272670	      6.35721093	    -10.73449091	     -7.17734206	     11.37779358	     -4.57743826	     -0.34125757	    -14.23083951	     -5.72447393	     -3.03884632
      0.44616667	      1.43148754	      4.95158868	     -0.43988319	     -0.86266914	      1.00049752	      0.30971915	     23.23912498	     -3.86505195	     -9.48206677	     -2.52958196	     -0.84942226	     -7.57317537	     -0.45374167	    -13.33478454	      6.22022571	    -10.61843866	     -7.68108133	     11.55200872	     -4.60399302	     -0.45682495	    -14.44249383	     -5.51099096	     -3.13515377
      0.45033333	      1.58310365	      4.86202831	     -0.41706203	     -0.85649516	      0.99999648	      0.30972838	     23.14297362	     -3.76163945	     -9.28885390	     -3.26408232	     -0.99399256	     -7.74692907	     -0.48502360	    -13.59885054	      6.06350340	    -10.52333997	     -8.27795001	     11.73636859	     -4.65588645	     -0.50078806	    -14.58944555	     -5.28394225	     -3.16605715
      0.45450000	      1.90429750	      4.69884803	     -0.40691224	     -0.85023027	      0.99984718	      0.30985464	     22.79710788	     -3.56218536	     -9.08612495	     -3.90183917	     -1.33505744	     -8.22593294	     -0.56906240	    -14.05001574	      5.81293705	    -10.52449287	     -8.85568961	     11.79658482	     -4.54256187	     -0.62445981	    -14.92538058	     -4.98718641	     -3.28254937
      0.45866667	      2.06380543	      4.62725952	     -0.38992433	     -0.84399306	      0.99942552	      0.30987330	     22.67663721	     -3.47560115	     -8.90626551	     -4.66264266	     -1.53156142	     -8.45220452	     -0.59081779	    -14.28987550	      5.67297370	    -10.42503317	     -9.52065955	     11.92746527	     -4.60444875	     -0.65420112	    -15.06114911	     -4.77254090	     -3.29061184
      0.46283333	      2.33927254	      4.46928733	     -0.38581097	     -0.83766279	      0.99929217	      0.31006737	     22.34829170	     -3.26780493	     -8.67251648	     -5.27266774	     -1.97524645	     -9.02511059	     -0.64216575	    -14.64096247	      5.41876363	    -10.43341624	    -10.20025904	     11.90377789	     -4.53151784	     -0.72124187	    -15.33656026	     -4.48478381	     -3.37819713
      0.46700000	      2.55542328	      4.36390380	     -0.38240026	     -0.83137705	      0.99908223	      0.31022966	     22.10558811	     -3.12159806	     -8.45496645	     -5.92841135	     -2.36851955	     -9.48823871	     -0.67691561	    -14.89067831	      5.22417913	    -10.39785638	    -10.95191079	     11.90599575	     -4.52842268	     -0.75529406	    -15.54179995	     -4.24829740	     -3.39399188
      0.47116667	      2.75654423	      4.25315147	     -0.38272937	     -0.82502305	      0.99890940	      0.31040585	     21.85671095	     -2.96637174	     -8.24746325	     -6.54661533	     -2.82856397	     -9.99756255	     -0.70174588	    -15.09930907	      5.02115662	    -10.37546957	    -11.74880002	     11.84442227	     -4.54765948	     -0.76044975	    -15.72138922	     -4.00185164	     -3.41886336
      0.47533333	      2.94246445	      4.14630767	     -0.38282271	     -0.81868855	      0.99877140	      0.31061762	     21.60534538	     -2.81072711	     -8.02542486	     -7.11985235	     -3.34085494	    -10.53675870	     -0.72034134	    -15.24866064	      4.81454807	    -10.35413046	    -12.62755595	     11.73739882	     -4.58729789	     -0.73966772	    -15.88904080	     -3.76595815	     -3.43459958
      0.47950000	      3.11120319	      4.04128300	     -0.38811443	     -0.81234705	      0.99866675	      0.31087193	     21.35722330	     -2.65176606	     -7.80285918	     -7.65496425	     -3.90342460	    -11.10657597	     -0.73446757	    -15.33944005	      4.60281048	    -10.34811450	    -13.57701409	     11.57377502	     -4.64194212	     -0.69260247	    -16.03829658	     -3.53618490	     -3.43919596
      0.48366667	      3.28812637	      3.92606910	     -0.40354682	     -0.80597372	      0.99863763	      0.31117037	     21.07671395	     -2.47699359	     -7.58187333	     -8.13759993	     -4.52070481	    -11.70850296	     -0.74569118	    -15.40298041	      4.37392550	    -10.37700134	    -14.58884591	     11.36506930	     -4.69241763	     -0.61200248	    -16.19271433	     -3.29825028	     -3.42867555
      0.48783333	      3.45118905	      3.80979027	     -0.44134959	     -0.79961625	      0.99863564	      0.31152775	     20.80805383	     -2.29344436	     -7.35139526	     -8.60041983	     -5.16561376	    -12.32268363	     -0.75614946	    -15.40636269	      4.14062851	    -10.43662936	    -15.68331042	     11.09945463	     -4.75277333	     -0.48934001	    -16.33205479	     -3.06475861	     -3.39491584
      0.49200000	      3.63189310	      3.67176201	     -0.56005460	     -0.79324238	      0.99867377	      0.31211090	     20.51216911	     -2.05097206	     -7.03769452	     -9.02004832	     -5.86939863	    -12.96620893	     -0.76710981	    -15.39250454	      3.88014158	    -10.64562260	    -16.85686273	     10.83334479	     -4.71402958	     -0.18215245	    -16.49126075	     -2.83427297	     -3.31526925
      0.49616667	      3.72330404	      3.60083118	     -0.54548328	     -0.78696110	      0.99869593	      0.31228734	     20.32017653	     -1.95759279	     -6.93917701	     -9.47377408	     -6.52711708	    -13.47040026	     -0.78001372	    -15.21072209	      3.68777539	    -10.58444395	    -18.12627679	     10.45469134	     -4.95264756	     -0.07935465	    -16.55831422	     -2.62354773	     -3.21263767
